<?xml version="1.0" encoding="UTF-8" standalone="no"?>
<!-- Generator: Adobe Illustrator 17.1.0, SVG Export Plug-In . SVG Version: 6.00 Build 0)  -->

<svg
   xmlns:dc="http://purl.org/dc/elements/1.1/"
   xmlns:cc="http://creativecommons.org/ns#"
   xmlns:rdf="http://www.w3.org/1999/02/22-rdf-syntax-ns#"
   xmlns:svg="http://www.w3.org/2000/svg"
   xmlns="http://www.w3.org/2000/svg"
   xmlns:sodipodi="http://sodipodi.sourceforge.net/DTD/sodipodi-0.dtd"
   xmlns:inkscape="http://www.inkscape.org/namespaces/inkscape"
   version="1.1"
   id="Capa_1"
   x="0px"
   y="0px"
   viewBox="0 0 512 512"
   style="enable-background:new 0 0 512 512;"
   xml:space="preserve"
   sodipodi:docname="facebook.svg"
   inkscape:version="0.92.4 (5da689c313, 2019-01-14)"><metadata
   id="metadata47"><rdf:RDF><cc:Work
       rdf:about=""><dc:format>image/svg+xml</dc:format><dc:type
         rdf:resource="http://purl.org/dc/dcmitype/StillImage" /></cc:Work></rdf:RDF></metadata><defs
   id="defs45" /><sodipodi:namedview
   pagecolor="#ffffff"
   bordercolor="#666666"
   borderopacity="1"
   objecttolerance="10"
   gridtolerance="10"
   guidetolerance="10"
   inkscape:pageopacity="0"
   inkscape:pageshadow="2"
   inkscape:window-width="1340"
   inkscape:window-height="921"
   id="namedview43"
   showgrid="false"
   inkscape:zoom="0.4609375"
   inkscape:cx="256"
   inkscape:cy="256"
   inkscape:window-x="0"
   inkscape:window-y="0"
   inkscape:window-maximized="0"
   inkscape:current-layer="g10" />
<g
   id="g10"
   style="fill:#bfbfbf">
	<path
   d="M222.892,388h51.491c4.418,0,8-3.582,8-8V264.093h26.751c4.101,0,7.538-3.101,7.958-7.18l4.51-43.772   c0.232-2.252-0.501-4.498-2.019-6.179c-1.517-1.682-3.675-2.641-5.939-2.641h-31.261v-17.73c0-3.662,1.159-3.936,2.928-3.936   h27.682c4.418,0,8-3.582,8-8v-42.5c0-4.406-3.562-7.982-7.968-8L274.848,124c-26.752,0-41.029,11.77-48.295,21.643   c-10.146,13.787-11.661,29.941-11.661,38.343v20.334h-16.489c-4.418,0-8,3.582-8,8v43.772c0,4.418,3.582,8,8,8h16.489V380   C214.892,384.418,218.473,388,222.892,388z M206.402,248.093v-27.772h16.489c4.418,0,8-3.582,8-8v-28.334   c0-5.185,0.833-18.376,8.547-28.86c7.386-10.037,19.3-15.126,35.376-15.126l30.177,0.122v26.533h-19.682   c-9.421,0-18.928,6.164-18.928,19.936v25.73c0,4.418,3.582,8,8,8h30.395l-2.862,27.772h-27.533c-4.418,0-8,3.582-8,8V372h-35.491   V256.093c0-4.418-3.582-8-8-8H206.402z"
   id="path2"
   style="fill:#000000;stroke:#ffffff" />
	<path
   d="M437.022,74.984C388.67,26.63,324.381,0,256,0C187.624,0,123.338,26.63,74.984,74.984S0,187.624,0,256   c0,68.388,26.63,132.678,74.984,181.028C123.335,485.375,187.621,512,256,512c68.385,0,132.673-26.625,181.021-74.972   C485.372,388.679,512,324.389,512,256C512,187.622,485.372,123.336,437.022,74.984z M425.708,425.714   C380.381,471.039,320.111,496,256,496c-64.106,0-124.374-24.961-169.703-70.286C40.965,380.386,16,320.113,16,256   c0-64.102,24.965-124.37,70.297-169.702C131.63,40.965,191.898,16,256,16c64.108,0,124.378,24.965,169.708,70.297   C471.037,131.628,496,191.896,496,256C496,320.115,471.037,380.387,425.708,425.714z"
   id="path4"
   style="fill:#ffffff" />
	<path
   d="M430.038,114.969c-2.784-3.432-7.821-3.957-11.253-1.172c-3.431,2.784-3.956,7.822-1.172,11.252   C447.526,161.919,464,208.425,464,256c0,55.567-21.635,107.803-60.919,147.086C363.797,442.367,311.563,464,256,464   c-51.26,0-100.505-18.807-138.663-52.956c-3.292-2.946-8.35-2.666-11.296,0.626c-2.946,3.292-2.666,8.35,0.626,11.296   C147.763,459.745,200.797,480,256,480c59.837,0,116.089-23.297,158.394-65.601C456.701,372.094,480,315.84,480,256   C480,204.766,462.256,154.681,430.038,114.969z"
   id="path6"
   style="fill:#ffffff" />
	<path
   d="M48,256c0-114.691,93.309-208,208-208c51.26,0,100.504,18.808,138.662,52.959c3.293,2.948,8.351,2.666,11.296-0.625   c2.947-3.292,2.667-8.35-0.625-11.296C364.237,52.256,311.203,32,256,32c-59.829,0-116.079,23.301-158.389,65.611   C55.301,139.92,32,196.171,32,256c0,51.24,17.744,101.328,49.963,141.038c1.581,1.949,3.889,2.96,6.217,2.96   c1.771,0,3.553-0.585,5.036-1.788c3.431-2.784,3.956-7.822,1.172-11.253C64.474,350.088,48,303.58,48,256z"
   id="path8"
   style="fill:#ffffff" />
<path
   style="opacity:1;fill:#ffffff;fill-opacity:0.97512434;fill-rule:nonzero;stroke:#ffffff;stroke-width:1.30169499;stroke-linecap:round;stroke-linejoin:round;stroke-miterlimit:4;stroke-dasharray:none;stroke-dashoffset:0;stroke-opacity:1;paint-order:stroke markers fill"
   d="m 232.56949,313.3489 c 0,-35.57986 -0.85938,-59.23993 -2.24582,-61.83051 -1.75742,-3.28377 -4.58823,-4.19636 -13.01695,-4.19636 h -10.77113 v -13.01695 -13.01694 h 9.60775 c 14.71525,0 16.42615,-2.961 16.42615,-28.42804 0,-24.03002 2.47368,-32.38737 12.20738,-41.24287 8.91987,-8.1151 18.34085,-10.60028 40.18416,-10.60028 h 19.20168 v 11.9322 11.93221 h -9.43897 c -13.49264,0 -22.73285,3.83789 -26.42356,10.97493 -3.96295,7.6635 -4.39123,39.02215 -0.58493,42.82846 1.5864,1.58639 9.31273,2.60339 19.77846,2.60339 16.75245,0 17.14288,0.1201 15.86691,4.88135 -0.71948,2.68475 -1.32148,8.54237 -1.33778,13.01695 l -0.0296,8.13559 h -15.83729 c -9.42523,0 -16.89132,1.05404 -18.44068,2.60339 -1.8977,1.89771 -2.60339,18.65763 -2.60339,61.83051 v 59.22712 H 248.8407 232.56951 Z"
   id="path854"
   inkscape:connector-curvature="0" /></g>
<g
   id="g12">
</g>
<g
   id="g14">
</g>
<g
   id="g16">
</g>
<g
   id="g18">
</g>
<g
   id="g20">
</g>
<g
   id="g22">
</g>
<g
   id="g24">
</g>
<g
   id="g26">
</g>
<g
   id="g28">
</g>
<g
   id="g30">
</g>
<g
   id="g32">
</g>
<g
   id="g34">
</g>
<g
   id="g36">
</g>
<g
   id="g38">
</g>
<g
   id="g40">
</g>
</svg>