<?xml version="1.0" encoding="UTF-8" standalone="no"?>
<!-- Generator: Adobe Illustrator 19.0.0, SVG Export Plug-In . SVG Version: 6.00 Build 0)  -->

<svg
   xmlns:dc="http://purl.org/dc/elements/1.1/"
   xmlns:cc="http://creativecommons.org/ns#"
   xmlns:rdf="http://www.w3.org/1999/02/22-rdf-syntax-ns#"
   xmlns:svg="http://www.w3.org/2000/svg"
   xmlns="http://www.w3.org/2000/svg"
   xmlns:sodipodi="http://sodipodi.sourceforge.net/DTD/sodipodi-0.dtd"
   xmlns:inkscape="http://www.inkscape.org/namespaces/inkscape"
   version="1.1"
   id="Layer_1"
   x="0px"
   y="0px"
   viewBox="0 0 409.602 409.602"
   style="enable-background:new 0 0 409.602 409.602;"
   xml:space="preserve"
   sodipodi:docname="instagram.svg"
   inkscape:version="0.92.4 (5da689c313, 2019-01-14)"><metadata
   id="metadata55"><rdf:RDF><cc:Work
       rdf:about=""><dc:format>image/svg+xml</dc:format><dc:type
         rdf:resource="http://purl.org/dc/dcmitype/StillImage" /></cc:Work></rdf:RDF></metadata><defs
   id="defs53" /><sodipodi:namedview
   pagecolor="#ffffff"
   bordercolor="#666666"
   borderopacity="1"
   objecttolerance="10"
   gridtolerance="10"
   guidetolerance="10"
   inkscape:pageopacity="0"
   inkscape:pageshadow="2"
   inkscape:window-width="871"
   inkscape:window-height="692"
   id="namedview51"
   showgrid="false"
   inkscape:zoom="0.57616908"
   inkscape:cx="204.80099"
   inkscape:cy="204.80099"
   inkscape:window-x="0"
   inkscape:window-y="0"
   inkscape:window-maximized="0"
   inkscape:current-layer="g16" />
<g
   id="g18">
	<g
   id="g8">
		<path
   d="M349.617,59.988C310.938,21.305,259.504,0,204.801,0S98.672,21.305,59.988,59.988C21.305,98.672,0,150.098,0,204.801    c0,54.711,21.305,106.14,59.988,144.82c38.68,38.68,90.11,59.981,144.813,59.981c54.707,0,106.137-21.301,144.816-59.981    c38.68-38.68,59.985-90.109,59.985-144.82C409.602,150.098,388.297,98.668,349.617,59.988L349.617,59.988z M340.566,340.57    c-36.261,36.262-84.476,56.231-135.765,56.231c-51.285,0-99.5-19.969-135.762-56.231c-36.266-36.261-56.238-84.48-56.238-135.769    c0-51.281,19.972-99.496,56.238-135.762s84.481-56.238,135.762-56.238c51.285,0,99.5,19.972,135.765,56.238    c36.262,36.262,56.235,84.477,56.235,135.762C396.801,256.094,376.828,304.309,340.566,340.57L340.566,340.57z M340.566,340.57"
   id="path2"
   style="fill:#ffffff" />
		<path
   d="M344.031,91.977c-2.226-2.747-6.258-3.168-9.004-0.938c-2.746,2.227-3.164,6.258-0.937,9    c23.93,29.496,37.109,66.699,37.109,104.762c0,44.453-17.308,86.242-48.734,117.668c-31.426,31.426-73.215,48.73-117.664,48.73    c-41.008,0-80.406-15.043-110.93-42.363c-2.637-2.359-6.68-2.133-9.039,0.5c-2.355,2.633-2.133,6.68,0.5,9.035    C118.211,367.797,160.637,384,204.801,384c47.867,0,92.871-18.637,126.715-52.48C365.359,297.676,384,252.672,384,204.801    C384,163.812,369.805,123.746,344.031,91.977L344.031,91.977z M344.031,91.977"
   id="path4"
   style="fill:#ffffff" />
		<path
   d="M38.398,204.801c0-91.754,74.649-166.403,166.403-166.403c41.008,0,80.402,15.047,110.929,42.368    c2.633,2.359,6.68,2.132,9.036-0.5c2.359-2.633,2.132-6.68-0.5-9.036c-32.875-29.425-75.305-45.628-119.465-45.628    c-47.863,0-92.863,18.64-126.711,52.488c-33.848,33.847-52.488,78.847-52.488,126.711c0,40.992,14.195,81.062,39.968,112.828    c1.266,1.562,3.11,2.371,4.973,2.371c1.418,0,2.844-0.469,4.031-1.434c2.742-2.226,3.164-6.257,0.938-9    C51.578,280.07,38.398,242.863,38.398,204.801L38.398,204.801z M38.398,204.801"
   id="path6"
   style="fill:#ffffff" />
	<path
   style="opacity:1;fill:#ffffff;fill-opacity:0.97512434;fill-rule:nonzero;stroke:#ffffff;stroke-width:1.04136097;stroke-linecap:round;stroke-linejoin:round;stroke-miterlimit:4;stroke-dasharray:none;stroke-dashoffset:0;stroke-opacity:1;paint-order:stroke markers fill"
   d="m 136.93897,290.82165 c -9.65952,-5.1378 -16.51522,-13.20472 -19.26721,-22.67121 -4.00402,-13.77337 -2.89081,-123.95349 1.32921,-131.55859 3.87746,-6.98774 13.34755,-15.85334 19.35269,-18.11737 3.1222,-1.17711 27.55611,-1.83174 67.68846,-1.8135 61.8365,0.0281 62.90826,0.0884 69.6728,3.91983 3.77862,2.14021 9.24576,7.27127 12.14921,11.40237 l 5.27899,7.51109 v 64.50165 c 0,62.0457 -0.13798,64.76599 -3.62578,71.44406 -1.99417,3.81833 -6.94163,9.28547 -10.99434,12.14921 l -7.36858,5.20681 -64.50432,0.39754 c -56.23458,0.34658 -65.17186,0.0425 -69.71113,-2.37189 z m 84.24328,-37.3017 c 18.27237,-5.47453 32.78284,-24.49893 34.24212,-44.89416 2.16583,-30.27043 -20.02744,-54.32059 -50.12655,-54.32059 -36.95581,0 -61.57764,36.91779 -47.34309,70.98587 3.83384,9.17567 16.05789,21.51846 25.84548,26.09652 9.74518,4.55822 26.16001,5.49457 37.38204,2.13236 z M 268.78141,153.15 c 4.28393,-4.73369 2.31751,-11.80504 -3.70298,-13.31609 -5.8537,-1.46918 -9.97471,1.12206 -10.64668,6.69451 -1.04504,8.66636 8.50926,13.07515 14.34966,6.62158 z"
   id="path862"
   inkscape:connector-curvature="0" /><path
   style="opacity:1;fill:#ffffff;fill-opacity:0.97512434;fill-rule:nonzero;stroke:#ffffff;stroke-width:1.04136097;stroke-linecap:round;stroke-linejoin:round;stroke-miterlimit:4;stroke-dasharray:none;stroke-dashoffset:0;stroke-opacity:1;paint-order:stroke markers fill"
   d="m 190.72774,238.35888 c -7.46845,-3.39284 -17.42518,-13.56733 -20.0608,-20.49955 -2.97759,-7.83165 -1.89016,-22.06674 2.28948,-29.97055 15.19967,-28.74302 58.43259,-23.78221 67.25179,7.71688 8.03197,28.68741 -22.4559,55.03023 -49.48047,42.75322 z"
   id="path864"
   inkscape:connector-curvature="0" /></g>
	<g
   id="g16">
		<path
   d="M258.59,102.125h-107.18c-27.176,0-49.285,22.11-49.285,49.286v107.179c0,27.177,22.109,49.286,49.285,49.286h107.18    c27.176,0,49.284-22.109,49.284-49.286V151.411C307.874,124.235,285.766,102.125,258.59,102.125z M294.898,258.589    c0,20.02-16.288,36.309-36.308,36.309h-107.18c-20.019,0-36.305-16.289-36.305-36.309V151.411    c0-20.019,16.287-36.305,36.305-36.305h107.18c20.02,0,36.308,16.287,36.308,36.305V258.589z"
   id="path10" />
		<path
   d="M262.503,139.728c-4.358,0-7.904,3.545-7.904,7.901c0,4.356,3.546,7.9,7.904,7.9c4.356,0,7.9-3.544,7.9-7.9    C270.403,143.273,266.859,139.728,262.503,139.728z"
   id="path12"
   style="fill:#000000;stroke:#000000" />
		<path
   d="M204.998,154.57c-27.806,0-50.428,22.622-50.428,50.428c0,27.808,22.622,50.432,50.428,50.432    c27.808,0,50.432-22.624,50.432-50.432C255.43,177.192,232.806,154.57,204.998,154.57z M204.998,242.454    c-20.652,0-37.453-16.803-37.453-37.456c0-20.648,16.801-37.446,37.453-37.446c20.65,0,37.449,16.798,37.449,37.446    C242.448,225.651,225.648,242.454,204.998,242.454z"
   id="path14" />
	</g>
</g>
<g
   id="g20">
</g>
<g
   id="g22">
</g>
<g
   id="g24">
</g>
<g
   id="g26">
</g>
<g
   id="g28">
</g>
<g
   id="g30">
</g>
<g
   id="g32">
</g>
<g
   id="g34">
</g>
<g
   id="g36">
</g>
<g
   id="g38">
</g>
<g
   id="g40">
</g>
<g
   id="g42">
</g>
<g
   id="g44">
</g>
<g
   id="g46">
</g>
<g
   id="g48">
</g>
</svg>