<?xml version="1.0" encoding="UTF-8" standalone="no"?>
<!-- Generator: Adobe Illustrator 17.1.0, SVG Export Plug-In . SVG Version: 6.00 Build 0)  -->

<svg
   xmlns:dc="http://purl.org/dc/elements/1.1/"
   xmlns:cc="http://creativecommons.org/ns#"
   xmlns:rdf="http://www.w3.org/1999/02/22-rdf-syntax-ns#"
   xmlns:svg="http://www.w3.org/2000/svg"
   xmlns="http://www.w3.org/2000/svg"
   xmlns:sodipodi="http://sodipodi.sourceforge.net/DTD/sodipodi-0.dtd"
   xmlns:inkscape="http://www.inkscape.org/namespaces/inkscape"
   version="1.1"
   id="Capa_1"
   x="0px"
   y="0px"
   viewBox="0 0 512 512"
   style="enable-background:new 0 0 512 512;"
   xml:space="preserve"
   sodipodi:docname="linkedin.svg"
   inkscape:version="0.92.4 (5da689c313, 2019-01-14)"><metadata
   id="metadata51"><rdf:RDF><cc:Work
       rdf:about=""><dc:format>image/svg+xml</dc:format><dc:type
         rdf:resource="http://purl.org/dc/dcmitype/StillImage" /></cc:Work></rdf:RDF></metadata><defs
   id="defs49" /><sodipodi:namedview
   pagecolor="#ffffff"
   bordercolor="#666666"
   borderopacity="1"
   objecttolerance="10"
   gridtolerance="10"
   guidetolerance="10"
   inkscape:pageopacity="0"
   inkscape:pageshadow="2"
   inkscape:window-width="862"
   inkscape:window-height="776"
   id="namedview47"
   showgrid="false"
   inkscape:zoom="0.40120419"
   inkscape:cx="349.61092"
   inkscape:cy="256"
   inkscape:window-x="0"
   inkscape:window-y="0"
   inkscape:window-maximized="0"
   inkscape:current-layer="Capa_1" />
<g
   id="g14"
   style="fill:#ffffff">
	<path
   d="M437.022,74.984C388.67,26.63,324.381,0,256,0C187.624,0,123.338,26.63,74.984,74.984S0,187.624,0,256   c0,68.388,26.63,132.678,74.984,181.028C123.335,485.375,187.621,512,256,512c68.385,0,132.673-26.625,181.021-74.972   C485.372,388.679,512,324.389,512,256C512,187.623,485.372,123.336,437.022,74.984z M425.708,425.714   C380.381,471.039,320.111,496,256,496c-64.106,0-124.374-24.961-169.703-70.286C40.965,380.386,16,320.113,16,256   c0-64.102,24.965-124.37,70.297-169.703C131.63,40.965,191.898,16,256,16c64.108,0,124.378,24.965,169.708,70.297   C471.037,131.628,496,191.896,496,256C496,320.115,471.037,380.387,425.708,425.714z"
   id="path2"
   style="fill:#ffffff" />
	<path
   d="M430.038,114.969c-2.783-3.432-7.821-3.956-11.253-1.172c-3.431,2.784-3.956,7.822-1.172,11.252   C447.526,161.919,464,208.426,464,256c0,55.567-21.635,107.803-60.919,147.085C363.797,442.367,311.563,464,256,464   c-51.26,0-100.505-18.807-138.663-52.956c-3.292-2.946-8.35-2.666-11.296,0.626c-2.946,3.292-2.666,8.35,0.626,11.296   C147.763,459.745,200.797,480,256,480c59.837,0,116.089-23.297,158.394-65.601C456.701,372.095,480,315.84,480,256   C480,204.767,462.256,154.681,430.038,114.969z"
   id="path4"
   style="fill:#ffffff" />
	<path
   d="M48,256c0-114.691,93.309-208,208-208c51.26,0,100.504,18.808,138.662,52.959c3.293,2.948,8.351,2.666,11.296-0.625   c2.947-3.292,2.667-8.35-0.625-11.296C364.237,52.256,311.203,32,256,32c-59.829,0-116.08,23.301-158.389,65.611   C55.301,139.921,32,196.171,32,256c0,51.239,17.744,101.328,49.963,141.038c1.581,1.949,3.889,2.96,6.217,2.96   c1.771,0,3.553-0.585,5.036-1.788c3.431-2.784,3.956-7.822,1.172-11.253C64.474,350.088,48,303.58,48,256z"
   id="path6"
   style="fill:#ffffff" />
	<path
   d="M325.685,373.042h49.577c4.418,0,8-3.582,8-8v-85.508c0-24.007-6.204-42.903-18.439-56.162   c-11.438-12.395-27.571-18.947-46.653-18.947c-16.595,0-28.251,5.056-36.677,11.636v-0.138c0-4.418-3.582-8-8-8H223.93   c-2.185,0-4.274,0.894-5.784,2.473c-1.509,1.58-2.307,3.708-2.208,5.891c0.62,13.618-0.002,147.368-0.008,148.718   c-0.01,2.128,0.829,4.173,2.33,5.681c1.501,1.508,3.542,2.356,5.67,2.356h49.562c4.418,0,8-3.582,8-8V281.76   c0-4.336,0.347-7.376,1.053-9.092c1.594-3.953,6.54-13.146,18.02-13.146c4.683,0,17.121,0,17.121,25.734v79.785   C317.685,369.46,321.266,373.042,325.685,373.042z M300.564,243.522c-14.727,0-27.01,8.659-32.835,23.106   c-1.547,3.754-2.237,8.421-2.237,15.131v75.282h-33.526c0.111-25.855,0.418-105.46,0.123-133.119h33.403v13.117   c0,3.544,2.332,6.666,5.731,7.671c3.398,1.005,7.054-0.347,8.982-3.32c6.721-10.367,16.487-20.966,37.964-20.966   c31.199,0,49.093,21.544,49.093,59.108v77.508h-33.577v-71.785c0-12.136-2.428-21.855-7.216-28.887   C320.746,247.964,311.788,243.522,300.564,243.522z"
   id="path8"
   style="fill:#000000" />
	<path
   d="M207.747,169.605c-0.41-19.786-15.099-33.605-35.72-33.605C151.151,136,136,150.203,136,169.771   s14.877,33.771,35.375,33.771h0.333c20.883,0,36.041-14.203,36.041-33.771C207.749,169.716,207.748,169.661,207.747,169.605z    M171.708,187.542h-0.333c-11.589,0-19.375-7.142-19.375-17.771c0-10.629,8.048-17.771,20.026-17.771   c11.906,0,19.456,6.838,19.722,17.853C191.707,180.437,183.664,187.542,171.708,187.542z"
   id="path10"
   style="fill:#000000" />
	<path
   d="M146.919,207.922c-4.418,0-8,3.582-8,8v149.119c0,4.418,3.582,8,8,8h49.591c4.418,0,8-3.582,8-8V215.922   c0-4.418-3.582-8-8-8H146.919z M188.511,357.042h-33.591V223.922h33.591V357.042z"
   id="path12"
   style="fill:#000000" />
<path
   style="opacity:1;fill:#ffffff;fill-opacity:0.97512434;fill-rule:nonzero;stroke:#000000;stroke-width:1.30169499;stroke-linecap:round;stroke-linejoin:round;stroke-miterlimit:4;stroke-dasharray:none;stroke-dashoffset:0;stroke-opacity:1;paint-order:stroke markers fill"
   d="m 156.35624,290.71186 v -65.08474 h 15.18644 15.18644 v 65.08474 65.08475 h -15.18644 -15.18644 z"
   id="path860"
   inkscape:connector-curvature="0" /><path
   style="opacity:1;fill:#ffffff;fill-opacity:0.97512434;fill-rule:nonzero;stroke:#000000;stroke-width:1.30169499;stroke-linecap:round;stroke-linejoin:round;stroke-miterlimit:4;stroke-dasharray:none;stroke-dashoffset:0;stroke-opacity:1;paint-order:stroke markers fill"
   d="m 161.35206,183.97949 c -6.14249,-2.96773 -9.80674,-13.2354 -7.1846,-20.13214 2.57828,-6.78139 8.52429,-9.81345 19.24462,-9.81345 15.63024,0 23.08772,16.46044 12.33091,27.21726 -5.74605,5.74605 -15.81404,6.87224 -24.39093,2.72833 z"
   id="path862"
   inkscape:connector-curvature="0" /><path
   style="opacity:1;fill:#ffffff;fill-opacity:0.97512434;fill-rule:nonzero;stroke:#000000;stroke-width:1.30169499;stroke-linecap:round;stroke-linejoin:round;stroke-miterlimit:4;stroke-dasharray:none;stroke-dashoffset:0;stroke-opacity:1;paint-order:stroke markers fill"
   d="m 232.28844,290.71186 v -65.08474 h 16.27119 16.27119 v 6.33104 c 0,16.34075 7.82378,17.56532 21.72553,3.40047 14.14059,-14.40821 33.18434,-18.10335 51.18028,-9.93075 11.16185,5.06899 17.48911,11.60007 23.3127,24.06365 4.11254,8.80161 4.64058,14.51482 5.36381,58.03389 l 0.8022,48.27119 H 350.89202 334.5687 l -0.69945,-45.01695 c -0.65813,-42.35772 -0.98982,-45.48389 -5.615,-52.92157 -6.60335,-10.61875 -17.62139,-15.65887 -31.34802,-14.33991 -12.62176,1.21279 -20.50054,6.46645 -27.15837,18.10952 -4.56098,7.97614 -4.84776,10.99131 -4.88136,51.32145 l -0.0357,42.84746 h -16.27119 -16.27119 z"
   id="path864"
   inkscape:connector-curvature="0" /></g>
<g
   id="g16">
</g>
<g
   id="g18">
</g>
<g
   id="g20">
</g>
<g
   id="g22">
</g>
<g
   id="g24">
</g>
<g
   id="g26">
</g>
<g
   id="g28">
</g>
<g
   id="g30">
</g>
<g
   id="g32">
</g>
<g
   id="g34">
</g>
<g
   id="g36">
</g>
<g
   id="g38">
</g>
<g
   id="g40">
</g>
<g
   id="g42">
</g>
<g
   id="g44">
</g>
</svg>