<?xml version="1.0" encoding="UTF-8" standalone="no"?>
<!-- Generator: Adobe Illustrator 17.1.0, SVG Export Plug-In . SVG Version: 6.00 Build 0)  -->

<svg
   xmlns:dc="http://purl.org/dc/elements/1.1/"
   xmlns:cc="http://creativecommons.org/ns#"
   xmlns:rdf="http://www.w3.org/1999/02/22-rdf-syntax-ns#"
   xmlns:svg="http://www.w3.org/2000/svg"
   xmlns="http://www.w3.org/2000/svg"
   xmlns:sodipodi="http://sodipodi.sourceforge.net/DTD/sodipodi-0.dtd"
   xmlns:inkscape="http://www.inkscape.org/namespaces/inkscape"
   version="1.1"
   id="Capa_1"
   x="0px"
   y="0px"
   viewBox="0 0 512 512"
   style="enable-background:new 0 0 512 512;"
   xml:space="preserve"
   sodipodi:docname="twitter.svg"
   inkscape:version="0.92.4 (5da689c313, 2019-01-14)"><metadata
   id="metadata47"><rdf:RDF><cc:Work
       rdf:about=""><dc:format>image/svg+xml</dc:format><dc:type
         rdf:resource="http://purl.org/dc/dcmitype/StillImage" /></cc:Work></rdf:RDF></metadata><defs
   id="defs45" /><sodipodi:namedview
   pagecolor="#ffffff"
   bordercolor="#666666"
   borderopacity="1"
   objecttolerance="10"
   gridtolerance="10"
   guidetolerance="10"
   inkscape:pageopacity="0"
   inkscape:pageshadow="2"
   inkscape:window-width="1051"
   inkscape:window-height="843"
   id="namedview43"
   showgrid="false"
   inkscape:zoom="0.4609375"
   inkscape:cx="256"
   inkscape:cy="41.644782"
   inkscape:window-x="0"
   inkscape:window-y="0"
   inkscape:window-maximized="0"
   inkscape:current-layer="Capa_1" />
<g
   id="g10">
	<path
   d="M437.022,74.984C388.67,26.63,324.381,0,256,0C187.624,0,123.338,26.63,74.984,74.984S0,187.624,0,256   c0,68.388,26.63,132.678,74.984,181.028C123.335,485.375,187.621,512,256,512c68.385,0,132.673-26.625,181.021-74.972   C485.372,388.679,512,324.389,512,256C512,187.623,485.372,123.336,437.022,74.984z M425.708,425.714   C380.381,471.039,320.111,496,256,496c-64.106,0-124.374-24.961-169.703-70.286C40.965,380.386,16,320.113,16,256   c0-64.102,24.965-124.37,70.297-169.703C131.63,40.965,191.898,16,256,16c64.108,0,124.378,24.965,169.708,70.297   C471.037,131.628,496,191.896,496,256C496,320.115,471.037,380.387,425.708,425.714z"
   id="path2"
   style="fill:#ffffff" />
	<path
   d="M430.038,114.969c-2.783-3.432-7.821-3.956-11.253-1.172c-3.431,2.784-3.956,7.822-1.172,11.252   C447.526,161.919,464,208.426,464,256c0,55.567-21.635,107.803-60.919,147.085C363.797,442.367,311.563,464,256,464   c-51.26,0-100.505-18.807-138.663-52.956c-3.292-2.946-8.35-2.666-11.296,0.626s-2.666,8.35,0.626,11.296   C147.763,459.745,200.797,480,256,480c59.837,0,116.089-23.297,158.394-65.601C456.701,372.095,480,315.84,480,256   C480,204.767,462.256,154.681,430.038,114.969z"
   id="path4"
   style="fill:#ffffff" />
	<path
   d="M48,256c0-114.691,93.309-208,208-208c51.26,0,100.504,18.808,138.662,52.959c3.293,2.948,8.35,2.666,11.296-0.625   c2.947-3.292,2.667-8.35-0.625-11.296C364.237,52.256,311.203,32,256,32c-59.829,0-116.08,23.301-158.389,65.611   C55.301,139.921,32,196.171,32,256c0,51.239,17.744,101.328,49.963,141.038c1.581,1.949,3.889,2.96,6.217,2.96   c1.771,0,3.553-0.585,5.036-1.788c3.431-2.784,3.956-7.822,1.172-11.253C64.474,350.088,48,303.58,48,256z"
   id="path6"
   style="fill:#ffffff" />
	<path
   d="M398.655,194.764c1.975-2.959,1.757-6.867-0.533-9.59c-2.29-2.722-6.102-3.604-9.357-2.167   c-0.204,0.09-0.408,0.18-0.612,0.268c1.881-3.375,3.437-6.949,4.63-10.676c1.014-3.166-0.035-6.628-2.635-8.698   c-2.6-2.071-6.209-2.317-9.067-0.622c-8.072,4.792-16.708,8.314-25.726,10.498c-10.798-9.778-25.002-15.307-39.646-15.307   c-32.47,0-58.887,26.402-58.887,58.855c0,0.928,0.021,1.854,0.063,2.776c-34.859-4.249-67.035-21.913-89.417-49.384   c-1.658-2.035-4.206-3.128-6.826-2.922c-2.617,0.205-4.967,1.68-6.288,3.948c-5.214,8.949-7.97,19.185-7.97,29.602   c0,9.952,2.486,19.542,7.052,28.008c-1.225,0.081-2.435,0.444-3.528,1.088c-2.443,1.438-3.942,4.06-3.942,6.895v0.636   c0,17.624,7.908,33.796,20.616,44.719c-0.275,0.237-0.536,0.495-0.78,0.772c-1.859,2.112-2.473,5.045-1.615,7.725   c5.467,17.082,18.25,30.333,34.264,36.714c-13.001,6.537-27.355,9.933-42.315,9.933c-3.772,0-7.544-0.216-11.211-0.643   c-3.698-0.431-7.206,1.748-8.458,5.255c-1.253,3.507,0.08,7.414,3.214,9.425C164.291,367.657,192.755,376,221.996,376   c57.454,0,93.424-27.125,113.482-49.88c24.968-28.326,39.288-65.827,39.288-102.89c0-0.914-0.007-1.804-0.022-2.676   C384.046,213.282,392.077,204.623,398.655,194.764z M361.931,210.17c-2.198,1.585-3.444,4.176-3.311,6.883   c0.097,1.97,0.145,3.99,0.145,6.177c0,33.221-12.863,66.866-35.29,92.31C305.597,335.822,273.479,360,221.996,360   c-15.75,0-31.25-2.705-45.896-7.938c17.51-3.161,33.891-10.506,48.153-21.695c2.662-2.088,3.723-5.626,2.648-8.835   c-1.075-3.208-4.052-5.394-7.436-5.458c-14.083-0.265-26.831-7.364-34.527-18.535c4.015-0.244,8.006-0.896,11.91-1.951   c3.583-0.967,6.029-4.272,5.91-7.981c-0.119-3.709-2.774-6.849-6.411-7.584c-15.937-3.219-28.377-15.183-32.716-30.254   c4.279,1.13,8.688,1.784,13.119,1.932c3.577,0.122,6.79-2.146,7.883-5.548c1.094-3.402-0.203-7.118-3.175-9.102   c-11.942-7.97-19.071-21.318-19.071-35.707c0-3.646,0.462-7.259,1.363-10.751c26.808,27.682,63.308,44.387,101.994,46.315   c2.526,0.125,4.93-0.936,6.54-2.863c1.609-1.928,2.22-4.5,1.649-6.946c-0.735-3.149-1.108-6.438-1.108-9.775   c0-23.63,19.239-42.855,42.887-42.855c11.804,0,23.217,4.931,31.314,13.527c1.884,2,4.664,2.894,7.358,2.367   c3.031-0.593,6.028-1.312,8.986-2.156c-1.483,1.179-3.052,2.266-4.696,3.25c-3.236,1.938-4.679,5.872-3.463,9.442   c1.216,3.571,4.757,5.809,8.506,5.367c1.303-0.153,2.602-0.329,3.897-0.529C365.78,207.282,363.885,208.76,361.931,210.17z"
   id="path8" />
</g>
<g
   id="g12">
</g>
<g
   id="g14">
</g>
<g
   id="g16">
</g>
<g
   id="g18">
</g>
<g
   id="g20">
</g>
<g
   id="g22">
</g>
<g
   id="g24">
</g>
<g
   id="g26">
</g>
<g
   id="g28">
</g>
<g
   id="g30">
</g>
<g
   id="g32">
</g>
<g
   id="g34">
</g>
<g
   id="g36">
</g>
<g
   id="g38">
</g>
<g
   id="g40">
</g>
<path
   style="opacity:1;fill:#ffffff;fill-opacity:0.97512434;fill-rule:nonzero;stroke:#000000;stroke-width:1.30169499;stroke-linecap:round;stroke-linejoin:round;stroke-miterlimit:4;stroke-dasharray:none;stroke-dashoffset:0;stroke-opacity:1;paint-order:stroke markers fill"
   d="m 194.26335,356.34642 c -12.92828,-2.50989 -12.60186,-3.74418 2.45585,-9.2865 13.69543,-5.0409 30.63158,-16.53255 31.56097,-21.41499 0.91889,-4.82729 -3.29608,-10.19679 -8.017,-10.21296 -7.67999,-0.0263 -20.00893,-4.781 -26.44934,-10.20025 l -6.78192,-5.70661 7.25692,-2.34561 c 12.16083,-3.93065 10.8551,-16.43679 -2.05239,-19.65759 -8.16188,-2.03663 -19.34487,-10.9657 -23.29104,-18.59677 l -3.30767,-6.39633 h 7.21503 c 13.70502,0 16.94695,-11.02488 5.68937,-19.34796 -8.30308,-6.13874 -15.4432,-21.6499 -14.54756,-31.60307 l 0.66984,-7.44389 13.77874,10.72886 c 7.5783,5.90087 19.78169,13.66871 27.11864,17.26185 16.84138,8.24779 46.09538,15.68196 58.25851,14.80495 l 9.31868,-0.67192 1.17697,-16.56898 c 2.08845,-29.40044 17.66374,-44.43717 44.20358,-42.6751 17.06011,1.13268 35.67059,12.38167 35.85801,21.67415 0.0778,3.85809 1.58567,6.28593 4.47323,7.2024 3.9994,1.26936 4.08817,1.76466 1.08474,6.05265 -2.04258,2.9162 -3.2711,9.61381 -3.2711,17.83332 0,25.21563 -10.73776,54.27836 -28.93927,78.32682 -15.632,20.65353 -39.46756,37.11219 -65.92433,45.52132 -12.9966,4.13089 -52.15209,5.70912 -67.53746,2.72221 z"
   id="path856"
   inkscape:connector-curvature="0" /></svg>